<svg width="37" xmlns="http://www.w3.org/2000/svg" height="37" id="screenshot-c2e47f03-594b-809e-8008-42b6c5b92041" viewBox="0 0 37 37" xmlns:xlink="http://www.w3.org/1999/xlink" fill="none" version="1.1"><g id="shape-c2e47f03-594b-809e-8008-42b6c5b92041" width="800" height="800" class="bi bi-people-fill" rx="0" ry="0" style="fill: rgb(0, 0, 0);"><g id="shape-c2e47f03-594b-809e-8008-42b6c5b92042" style="display: none;"><g class="fills" id="fills-c2e47f03-594b-809e-8008-42b6c5b92042"><rect width="37" height="37" x="0" transform="matrix(1.000000, 0.000000, 0.000000, 1.000000, 0.000000, 0.000000)" style="fill: rgb(255, 255, 255); fill-opacity: 1;" ry="0" fill="none" rx="0" y="0"/></g></g><g id="shape-c2e47f03-594b-809e-8008-42b6c5b92043"><g class="fills" id="fills-c2e47f03-594b-809e-8008-42b6c5b92043"><path d="M16.1875,32.375C16.1875,32.375,13.875,32.375,13.875,30.0625C13.875,27.75,16.1875,20.8125,25.4375,20.8125C34.6875,20.8125,37,27.75,37,30.0625C37,32.375,34.6875,32.375,34.6875,32.375L16.1875,32.375ZM25.4375,18.5C29.26904296875,18.5,32.375,15.39404296875,32.375,11.5625C32.375,7.73095703125,29.26904296875,4.625,25.4375,4.625C21.6060791015625,4.625,18.5,7.73095703125,18.5,11.5625C18.5,15.39404296875,21.6060791015625,18.5,25.4375,18.5Z" style="fill: rgb(255, 255, 255); fill-opacity: 1;"/></g></g><g id="shape-c2e47f03-594b-809e-8008-42b6c5b92044"><g class="fills" id="fills-c2e47f03-594b-809e-8008-42b6c5b92044"><path d="M12.06201171875,32.375C11.71923828125,31.653076171875,11.5482177734375,30.861572265625,11.5625,30.0625C11.5625,26.9290771484375,13.135009765625,23.703125,16.0394287109375,21.4600830078125C14.5897216796875,21.013427734375,13.079345703125,20.794921875,11.5625,20.8125C2.3125,20.8125,0,27.75,0,30.0625C0,32.375,2.3125,32.375,2.3125,32.375L12.06201171875,32.375Z" fill-rule="evenodd" style="fill: rgb(255, 255, 255); fill-opacity: 1;"/></g></g><g id="shape-c2e47f03-594b-809e-8008-42b6c5b92045"><g class="fills" id="fills-c2e47f03-594b-809e-8008-42b6c5b92045"><path d="M10.40625,18.5C13.5992431640625,18.5,16.1875,15.91162109375,16.1875,12.71875C16.1875,9.52587890625,13.5992431640625,6.9375,10.40625,6.9375C7.2132568359375,6.9375,4.625,9.52587890625,4.625,12.71875C4.625,15.91162109375,7.2132568359375,18.5,10.40625,18.5Z" style="fill: rgb(255, 255, 255); fill-opacity: 1;"/></g></g></g></svg>