<svg width="37" xmlns="http://www.w3.org/2000/svg" height="37" id="screenshot-740cfcf0-0660-8044-8008-41859301e032" viewBox="0 0 37 37" xmlns:xlink="http://www.w3.org/1999/xlink" fill="none" version="1.1"><g id="shape-740cfcf0-0660-8044-8008-41859301e032" width="800" height="800" rx="0" ry="0" style="fill: rgb(0, 0, 0);"><g id="shape-740cfcf0-0660-8044-8008-41859301e05d" style="display: none;"><g class="fills" id="fills-740cfcf0-0660-8044-8008-41859301e05d"><rect width="37" height="37" x="0" transform="matrix(1.000000, 0.000000, 0.000000, 1.000000, 0.000000, 0.000000)" style="fill: none;" ry="0" fill="none" rx="0" y="0"/></g></g><g id="shape-740cfcf0-0660-8044-8008-41859301e05e"><g class="fills" id="fills-740cfcf0-0660-8044-8008-41859301e05e"><path d="M28.47509765625,25.9461669921875L29.076416015625,30.81787109375C29.23046875,32.097412109375,27.8583984375,32.99169921875,26.763916015625,32.3287353515625L21.4296875,29.1529541015625C21.059814453125,28.9371337890625,20.96728515625,28.474609375,21.167724609375,28.1044921875C21.9384765625,26.686279296875,22.354736328125,25.0830078125,22.354736328125,23.4794921875C22.354736328125,17.8369140625,17.513916015625,13.242919921875,11.56298828125,13.242919921875C10.34521484375,13.242919921875,9.158203125,13.4278564453125,8.048095703125,13.7978515625C7.4775390625,13.9827880859375,6.922607421875,13.4586181640625,7.0615234375,12.8729248046875C8.46435546875,7.26123046875,13.860107421875,3.0833740234375,20.30419921875,3.0833740234375C27.82763671875,3.0833740234375,33.917236328125,8.7720947265625,33.917236328125,15.78662109375C33.917236328125,19.9490966796875,31.7744140625,23.6336669921875,28.47509765625,25.9461669921875Z" style="fill: rgb(255, 255, 255); fill-opacity: 1;"/></g></g><g id="shape-740cfcf0-0660-8044-8008-41859301e05f"><g class="fills" id="fills-740cfcf0-0660-8044-8008-41859301e05f"><path d="M20.04150390625,23.4793701171875C20.04150390625,25.3138427734375,19.36328125,27.0096435546875,18.22265625,28.3509521484375C16.6962890625,30.2010498046875,14.27587890625,31.387939453125,11.5625,31.387939453125L7.53857421875,33.777587890625C6.8603515625,34.19384765625,5.9970703125,33.62353515625,6.089599609375,32.837158203125L6.47509765625,29.8001708984375C4.4091796875,28.3663330078125,3.083251953125,26.0692138671875,3.083251953125,23.4793701171875C3.083251953125,20.7659912109375,4.532470703125,18.3763427734375,6.75244140625,16.9578857421875C8.12451171875,16.0638427734375,9.774169921875,15.55517578125,11.5625,15.55517578125C16.2490234375,15.55517578125,20.04150390625,19.1009521484375,20.04150390625,23.4793701171875Z" style="fill: rgb(255, 255, 255); fill-opacity: 1;"/></g></g></g></svg>