<!DOCTYPE svg PUBLIC "-//W3C//DTD SVG 1.1//EN" "http://www.w3.org/Graphics/SVG/1.1/DTD/svg11.dtd">
<!-- Uploaded to: SVG Repo, www.svgrepo.com, Transformed by: SVG Repo Mixer Tools -->
<svg width="800px" height="800px" viewBox="0 0 24 24" fill="none" xmlns="http://www.w3.org/2000/svg">
<g id="SVGRepo_bgCarrier" stroke-width="0"/>
<g id="SVGRepo_tracerCarrier" stroke-linecap="round" stroke-linejoin="round"/>
<g id="SVGRepo_iconCarrier"> <path d="M4.99951 16.55V19.9C4.99922 20.3102 5.11905 20.7114 5.34418 21.0542C5.56931 21.397 5.88994 21.6665 6.26642 21.8292C6.6429 21.9919 7.05875 22.0408 7.46271 21.9698C7.86666 21.8989 8.24103 21.7113 8.53955 21.4301L11.1495 18.9701H12.0195C17.5395 18.9701 22.0195 15.1701 22.0195 10.4701C22.0195 5.77009 17.5395 1.97009 12.0195 1.97009C6.49953 1.97009 2.01953 5.78009 2.01953 10.4701C2.042 11.6389 2.32261 12.7882 2.84125 13.8358C3.35989 14.8835 4.10373 15.8035 5.01953 16.53L4.99951 16.55Z" stroke="#000000" stroke-width="0.648" stroke-linecap="round" stroke-linejoin="round"/> </g>
</svg>