<svg width="37" xmlns="http://www.w3.org/2000/svg" height="37" id="screenshot-740cfcf0-0660-8044-8008-41859301e031" viewBox="0 0 37 37" xmlns:xlink="http://www.w3.org/1999/xlink" fill="none" version="1.1"><g id="shape-740cfcf0-0660-8044-8008-41859301e031" height="800" rx="0" ry="0" style="fill: rgb(0, 0, 0);"><g id="shape-740cfcf0-0660-8044-8008-41859301e05b" style="display: none;"><g class="fills" id="fills-740cfcf0-0660-8044-8008-41859301e05b"><rect width="37" height="37" x="0" transform="matrix(1.000000, 0.000000, 0.000000, 1.000000, 0.000000, 0.000000)" style="fill: rgb(255, 255, 255); fill-opacity: 1;" ry="0" fill="none" rx="0" y="0"/></g></g><g id="shape-740cfcf0-0660-8044-8008-41859301e05c"><g class="fills" id="fills-740cfcf0-0660-8044-8008-41859301e05c"><path d="M9.259033203125,7.2265625C7.2265625,7.2265625,5.645751953125,5.87158203125,5.645751953125,3.61328125C5.645751953125,1.806640625,7.2265625,2.2737367544323206e-13,9.259033203125,2.2737367544323206e-13C11.29150390625,2.2737367544323206e-13,12.872314453125,1.806640625,12.872314453125,3.61328125C12.872314453125,5.87158203125,11.29150390625,7.2265625,9.259033203125,7.2265625L9.259033203125,7.2265625M18.51806640625,7.2265625C16.485595703125,7.2265625,14.90478515625,5.87158203125,14.90478515625,3.61328125C14.90478515625,1.806640625,16.485595703125,2.2737367544323206e-13,18.51806640625,2.2737367544323206e-13C20.550537109375,2.2737367544323206e-13,22.13134765625,1.806640625,22.13134765625,3.61328125C22.13134765625,5.87158203125,20.550537109375,7.2265625,18.51806640625,7.2265625L18.51806640625,7.2265625M27.777099609375,7.2265625C25.74462890625,7.2265625,23.93798828125,5.87158203125,23.93798828125,3.61328125C23.93798828125,1.806640625,25.74462890625,2.2737367544323206e-13,27.777099609375,2.2737367544323206e-13C29.8095703125,2.2737367544323206e-13,31.390380859375,1.806640625,31.390380859375,3.61328125C31.390380859375,5.87158203125,29.8095703125,7.2265625,27.777099609375,7.2265625L27.777099609375,7.2265625M9.259033203125,16.71142578125C7.2265625,16.71142578125,5.645751953125,14.90478515625,5.645751953125,13.09814453125C5.645751953125,10.83984375,7.2265625,9.033203125,9.259033203125,9.033203125C11.29150390625,9.033203125,12.872314453125,10.83984375,12.872314453125,13.09814453125C12.872314453125,14.90478515625,11.29150390625,16.71142578125,9.259033203125,16.71142578125L9.259033203125,16.71142578125M18.51806640625,16.71142578125C16.485595703125,16.71142578125,14.90478515625,14.90478515625,14.90478515625,13.09814453125C14.90478515625,10.83984375,16.485595703125,9.033203125,18.51806640625,9.033203125C20.550537109375,9.033203125,22.13134765625,10.83984375,22.13134765625,13.09814453125C22.13134765625,14.90478515625,20.550537109375,16.71142578125,18.51806640625,16.71142578125L18.51806640625,16.71142578125M27.777099609375,16.71142578125C25.74462890625,16.71142578125,23.93798828125,14.90478515625,23.93798828125,13.09814453125C23.93798828125,10.83984375,25.74462890625,9.033203125,27.777099609375,9.033203125C29.8095703125,9.033203125,31.390380859375,10.83984375,31.390380859375,13.09814453125C31.390380859375,14.90478515625,29.8095703125,16.71142578125,27.777099609375,16.71142578125L27.777099609375,16.71142578125M9.259033203125,25.74462890625C7.2265625,25.74462890625,5.645751953125,24.3896484375,5.645751953125,22.13134765625C5.645751953125,20.32470703125,7.2265625,18.51806640625,9.259033203125,18.51806640625C11.29150390625,18.51806640625,12.872314453125,20.32470703125,12.872314453125,22.13134765625C12.872314453125,24.3896484375,11.29150390625,25.74462890625,9.259033203125,25.74462890625L9.259033203125,25.74462890625M18.51806640625,25.74462890625C16.485595703125,25.74462890625,14.90478515625,24.3896484375,14.90478515625,22.13134765625C14.90478515625,20.32470703125,16.485595703125,18.51806640625,18.51806640625,18.51806640625C20.550537109375,18.51806640625,22.13134765625,20.32470703125,22.13134765625,22.13134765625C22.13134765625,24.3896484375,20.550537109375,25.74462890625,18.51806640625,25.74462890625L18.51806640625,25.74462890625M18.51806640625,37.0361328125C16.485595703125,37.0361328125,14.90478515625,35.2294921875,14.90478515625,33.4228515625C14.90478515625,31.16455078125,16.485595703125,29.8095703125,18.51806640625,29.8095703125C20.550537109375,29.8095703125,22.13134765625,31.16455078125,22.13134765625,33.4228515625C22.13134765625,35.2294921875,20.550537109375,37.0361328125,18.51806640625,37.0361328125L18.51806640625,37.0361328125M27.777099609375,25.74462890625C25.74462890625,25.74462890625,23.93798828125,24.3896484375,23.93798828125,22.13134765625C23.93798828125,20.32470703125,25.74462890625,18.51806640625,27.777099609375,18.51806640625C29.8095703125,18.51806640625,31.390380859375,20.32470703125,31.390380859375,22.13134765625C31.390380859375,24.3896484375,29.8095703125,25.74462890625,27.777099609375,25.74462890625L27.777099609375,25.74462890625" style="fill: rgb(0, 0, 0); fill-opacity: 1;"/></g></g></g></svg>